#!OML:ASF F:\VICON\USERDATA\INSTALL\rory3\rory3.ASF
:FULLY-SPECIFIED
:DEGREES
572
root -2.84797 18.2116 -3.88582 17.4312 4.04736 -375.001
lowerback -4.25424 8.10944 2.48233
upperback -11.0281 11.1278 0.816924
thorax -9.04229 5.4169 -0.874874
lowerneck -18.4636 5.95673 3.98069
upperneck 40.3703 8.78116 -0.729977
head 18.5576 4.17237 0.839582
rclavicle -3.18055e-014 -3.18055e-015
rhumerus -24.7209 42.9243 -97.4925
rradius 60.6445
rwrist -33.1365
rhand 30.2497 -1.48623
rfingers 7.12502
rthumb 53.9313 -20.3706
lclavicle -3.18055e-014 -3.18055e-015
lhumerus -13.6888 -6.31061 70.2914
lradius 26.1122
lwrist -2.06077
lhand 18.6243 12.8469
lfingers 7.12502
lthumb 43.2514 37.0034
rfemur 276.475 -22.9297 -296.397
rtibia 91.6419
rfoot 212.143 -229.218
rtoes 46.3834
lfemur -42.8187 -18.6265 0.228538
ltibia 47.6622
lfoot 187.122 -163.044
ltoes -24.5814
573
root -2.78184 17.9748 -3.99437 17.5029 -1.45778 -375.114
lowerback -3.85812 8.63669 2.79649
upperback -10.8814 11.8311 0.887236
thorax -9.04947 5.7283 -1.0284
lowerneck -18.2764 5.03584 3.32608
upperneck 40.3564 7.36987 -0.447978
head 18.3898 3.5349 0.766429
rclavicle 4.49253e-014 3.33958e-014
rhumerus -26.1273 43.2388 -98.9903
rradius 62.6678
rwrist -33.6752
rhand 29.4347 -1.0726
rfingers 7.12502
rthumb 53.198 -20.4388
lclavicle 4.49253e-014 3.33958e-014
lhumerus -13.9975 -5.21236 68.5431
lradius 26.0151
lwrist -1.83733
lhand 19.6723 13.1104
lfingers 7.12502
lthumb 44.2297 36.907
rfemur 275.788 -21.9353 -294.949
rtibia 91.5165
rfoot 200.571 -231.927
rtoes 51.9097
lfemur -40.7979 -17.1718 -1.26262
ltibia 48.0379
lfoot 182.964 -162.872
ltoes -25.7326
574
root -2.7326 17.6798 -4.11619 17.4557 -6.5026 -375.333
lowerback -2.96163 8.95696 3.00115
upperback -10.779 12.3014 1.0578
thorax -9.44259 5.92211 -1.11533
lowerneck -18.2276 4.04032 2.51435
upperneck 40.4011 5.89376 -0.143395
head 18.3051 2.84158 0.731489
rclavicle -2.5345e-014 -6.36111e-015
rhumerus -27.3288 43.9704 -100.247
rradius 64.603
rwrist -34.6216
rhand 28.0058 -0.189481
rfingers 7.12502
rthumb 51.9054 -20.3511
lclavicle -2.5345e-014 -6.36111e-015
lhumerus -14.5867 -4.45734 66.6576
lradius 26.4089
lwrist -1.33013
lhand 20.9642 14.3162
lfingers 7.12502
lthumb 45.4322 37.6435
rfemur 274.944 -20.9429 -292.861
rtibia 91.1237
rfoot 206.405 -229.619
rtoes 49.1199
lfemur -37.7354 -13.5585 -3.55315
ltibia 48.6166
lfoot 179.497 -164.2
ltoes -43.74
575
root -2.69168 17.4055 -4.24632 17.4602 -10.983 -375.573
lowerback -1.9357 9.04269 3.10649
upperback -10.5722 12.4732 1.33705
thorax -9.84727 5.97996 -1.04991
lowerneck -18.5434 3.14274 1.45975
upperneck 40.4298 4.63411 0.226919
head 18.3256 2.19715 0.829103
rclavicle -8.49804e-015 -1.82882e-014
rhumerus -27.4102 45.1461 -100.481
rradius 66.2276
rwrist -36.3918
rhand 26.9037 0.334209
rfingers 7.12502
rthumb 50.903 -20.4012
lclavicle -8.49804e-015 -1.82882e-014
lhumerus -13.941 -0.0411022 64.5113
lradius 24.4373
lwrist -4.10126
lhand 22.162 14.3497
lfingers 7.12502
lthumb 46.5435 37.2144
rfemur 274.223 -20.1729 -290.543
rtibia 90.4212
rfoot 211.974 -227.338
rtoes 44.1782
lfemur -35.9322 -11.6551 -4.61664
ltibia 49.4951
lfoot 172.76 -163.18
ltoes -39.4958
576
root -2.64481 17.1716 -4.35996 17.3646 -15.5508 -375.008
lowerback -1.27084 9.07925 2.57565
upperback -10.2136 12.4977 1.29445
thorax -9.92782 6.01655 -0.908702
lowerneck -18.7539 2.32066 0.691278
upperneck 40.2888 3.4438 0.455271
head 18.2603 1.6069 0.818831
rclavicle 8.94531e-015 -2.22639e-014
rhumerus -26.7735 46.2302 -100.245
rradius 67.5817
rwrist -38.1477
rhand 26.0692 0.699033
rfingers 7.12502
rthumb 50.1409 -20.4494
lclavicle 8.94531e-015 -2.22639e-014
lhumerus -14.4434 1.28178 62.3564
lradius 24.8993
lwrist -3.51968
lhand 22.5656 15.5259
lfingers 7.12502
lthumb 46.9172 38.2285
rfemur 273.559 -19.6177 -289.192
rtibia 89.8435
rfoot 219.864 -226.698
rtoes 30.2748
lfemur -34.9773 -10.9544 -6.20519
ltibia 50.3237
lfoot 165.862 -161.602
ltoes -30.5829
577
root -2.595 16.9318 -4.45653 16.9157 -19.9874 -374.35
lowerback -0.376862 9.06758 2.12356
upperback -9.86429 12.4636 1.19096
thorax -10.1251 6.00878 -0.907008
lowerneck -18.5132 1.50018 0.106199
upperneck 39.9334 2.2356 0.572749
head 17.9752 1.02675 0.711194
rclavicle -1.21159e-013 -1.90833e-014
rhumerus -26.1248 47.4743 -100.125
rradius 68.6272
rwrist -39.6905
rhand 24.5084 1.30449
rfingers 7.12502
rthumb 48.7094 -20.5704
lclavicle -1.21159e-013 -1.90833e-014
lhumerus -15.0194 3.59465 59.9527
lradius 24.8389
lwrist -3.89937
lhand 22.6745 16.0509
lfingers 7.12502
lthumb 47.0179 38.7093
rfemur 273.225 -19.5187 -287.955
rtibia 89.0239
rfoot 213.527 -227.432
rtoes 36.6592
lfemur -33.5335 -9.66765 -8.22618
ltibia 51.0767
lfoot 160.59 -160.154
ltoes -29.4819
578
root -2.55323 16.7041 -4.5567 16.2369 -24.1037 -373.795
lowerback 0.679568 8.91521 1.83154
upperback -9.41548 12.2518 1.15947
thorax -10.2917 5.90479 -0.913864
lowerneck -18.5008 0.685877 -0.565942
upperneck 39.7865 1.0526 0.759339
head 17.886 0.447426 0.667222
rclavicle 6.06293e-014 -6.36111e-015
rhumerus -25.0951 48.9816 -99.7981
rradius 69.2769
rwrist -40.7979
rhand 22.5383 2.51326
rfingers 7.12502
rthumb 46.892 -20.2004
lclavicle 6.06293e-014 -6.36111e-015
lhumerus -15.1905 7.39605 57.2675
lradius 23.7641
lwrist -5.78164
lhand 22.4619 16.4602
lfingers 7.12502
lthumb 46.8213 39.2048
rfemur 273.12 -19.5993 -286.991
rtibia 88.4378
rfoot 206.019 -229.496
rtoes 49.1033
lfemur -31.8815 -7.55373 -10.2107
ltibia 51.4268
lfoot 155.796 -158.63
ltoes -30.4914
579
root -2.51596 16.4649 -4.6495 15.5996 -28.5948 -373.064
lowerback 1.44223 8.8459 1.15347
upperback -8.89016 12.107 1.11128
thorax -10.2785 5.87456 -0.686606
lowerneck -18.7236 -0.038248 -1.12811
upperneck 39.7462 0.0703917 0.725717
head 17.9337 -0.0674438 0.544973
rclavicle -9.19379e-014 -3.65764e-014
rhumerus -23.401 50.3919 -98.8104
rradius 69.7552
rwrist -41.9438
rhand 21.8393 3.47034
rfingers 7.12502
rthumb 46.2445 -19.5217
lclavicle -9.19379e-014 -3.65764e-014
lhumerus -16.2013 9.22766 54.6418
lradius 24.0598
lwrist -5.74292
lhand 21.7111 17.8618
lfingers 7.12502
lthumb 46.1256 40.9039
rfemur 273.221 -19.2002 -286.314
rtibia 87.6477
rfoot 211.666 -226.549
rtoes 45.8991
lfemur -30.4622 -4.97855 -12.4175
ltibia 51.6254
lfoot 150.509 -157.47
ltoes -26.9484
580
root -2.48875 16.2549 -4.70533 14.6126 -34.1292 -371.797
lowerback 1.82868 9.11462 -0.175989
upperback -8.32584 12.342 0.885384
thorax -10.1083 6.0792 -0.283408
lowerneck -18.6486 -0.442124 -1.10833
upperneck 39.5263 -0.42973 0.210302
head 17.7942 -0.365737 0.191568
rclavicle 2.45499e-014 1.19271e-014
rhumerus -21.6731 51.5558 -97.4783
rradius 70.4986
rwrist -43.4819
rhand 21.6663 3.57385
rfingers 7.12502
rthumb 46.0841 -19.4856
lclavicle 2.45499e-014 1.19271e-014
lhumerus -17.8656 9.90849 51.9216
lradius 24.9499
lwrist -4.87662
lhand 20.6027 19.2785
lfingers 7.12502
lthumb 45.0961 42.7401
rfemur 274.153 -18.4158 -286.918
rtibia 86.8129
rfoot 215.322 -223.635
rtoes 40.287
lfemur -28.8817 -2.25613 -15.2871
ltibia 51.9644
lfoot 143.358 -158.831
ltoes -14.6796
